<svg version="1.1" id="Calque_1" xmlns="http://www.w3.org/2000/svg" xmlns:xlink="http://www.w3.org/1999/xlink" x="0px" y="0px" width="180" height="150" viewBox="0 0 180 150" enable-background="new 0 0 180 150" xml:space="preserve">
<g>
	<g>
		<path fill="#010101" d="M5.109,6.655h1.066v18.794h-1.36V8.095L1.217,9.321L0.844,8.228L5.109,6.655z"/>
		<path fill="#010101" d="M18.411,25.77c-4.745,0-7.705-4.452-7.705-9.624s3.013-9.678,7.758-9.678s7.704,4.452,7.704,9.624    C26.168,21.264,23.156,25.77,18.411,25.77z M18.411,7.722c-3.866,0-6.265,3.999-6.265,8.37c0,4.372,2.453,8.424,6.318,8.424    c3.866,0,6.265-3.998,6.265-8.37S22.276,7.722,18.411,7.722z"/>
		<path fill="#010101" d="M32.781,11.738c1.104,0,1.881-0.45,2.534-1.135l0.746,0.669c-0.808,0.901-1.788,1.508-3.311,1.508    c-2.207,0-4.01-1.695-4.01-4.197c0-2.331,1.633-4.196,3.855-4.196c2.378,0,3.745,1.896,3.745,4.259c0,0.108,0,0.232-0.015,0.373    h-6.373C30.124,10.76,31.367,11.738,32.781,11.738z M35.128,8.133c-0.125-1.461-0.964-2.735-2.564-2.735    c-1.399,0-2.456,1.166-2.611,2.735H35.128z"/>
		<path fill="#010101" d="M10.92,49.322H2.816V30.661h7.704c3.626,0,6.052,1.786,6.052,4.585V35.3c0,2.532-1.652,3.813-3.172,4.425    c2.239,0.587,4.212,1.866,4.212,4.452v0.054C17.612,47.35,14.946,49.322,10.92,49.322z M15.159,35.38    c0-2.053-1.679-3.439-4.665-3.439H4.203v7.332h6.158c2.799,0,4.798-1.36,4.798-3.84V35.38z M16.199,44.177    c0-2.292-1.999-3.625-5.678-3.625H4.203v7.491h6.771c3.199,0,5.225-1.467,5.225-3.813V44.177z"/>
		<path fill="#010101" d="M21.796,32.181v-1.786h1.626v1.786H21.796z M21.957,49.322V35.727h1.306v13.596H21.957z"/>
		<path fill="#010101" d="M34.192,48.416c2.106,0,3.545-0.933,4.665-2.133l0.907,0.8c-1.386,1.493-3.012,2.56-5.625,2.56    c-3.572,0-6.665-2.853-6.665-7.092v-0.054c0-3.945,2.772-7.091,6.451-7.091c3.812,0,6.238,3.093,6.238,7.118v0.053    c0,0.187,0,0.267-0.026,0.48H28.861C29.101,46.442,31.526,48.416,34.192,48.416z M38.75,41.884    c-0.187-2.745-1.759-5.277-4.878-5.277c-2.693,0-4.772,2.266-5.012,5.277H38.75z"/>
		<path fill="#010101" d="M54.319,49.322v-8.077c0-2.799-1.573-4.639-4.318-4.639c-2.666,0-4.719,2.026-4.719,4.852v7.865h-1.306    V35.727h1.306v2.532c0.907-1.599,2.426-2.853,4.905-2.853c3.439,0,5.438,2.347,5.438,5.599v8.317H54.319L54.319,49.322z"/>
		<path fill="#010101" d="M70.66,49.322v-8.077c0-2.799-1.573-4.639-4.319-4.639c-2.666,0-4.718,2.026-4.718,4.852v7.865h-1.306    V35.727h1.306v2.532c0.906-1.599,2.426-2.853,4.905-2.853c3.439,0,5.438,2.347,5.438,5.599v8.317H70.66L70.66,49.322z"/>
		<path fill="#010101" d="M85.988,49.322v-2.266c-0.933,1.306-2.612,2.586-5.198,2.586c-2.533,0-5.251-1.439-5.251-4.266v-0.053    c0-2.826,2.426-4.426,5.945-4.426c1.893,0,3.199,0.24,4.505,0.587v-0.587c0-2.745-1.679-4.158-4.479-4.158    c-1.653,0-3.012,0.453-4.265,1.093l-0.48-1.146c1.493-0.692,2.959-1.173,4.825-1.173c3.492,0,5.678,1.813,5.678,5.332v8.478    L85.988,49.322L85.988,49.322z M86.015,42.685c-1.146-0.293-2.666-0.614-4.612-0.614c-2.879,0-4.479,1.28-4.479,3.174v0.053    c0,1.973,1.866,3.119,3.945,3.119c2.772,0,5.145-1.706,5.145-4.186V42.685z"/>
		<path fill="#010101" d="M92.146,49.322V29.861h1.307v19.461H92.146z"/>
		<path fill="#010101" d="M104.382,48.416c2.106,0,3.546-0.933,4.666-2.133l0.906,0.8c-1.386,1.493-3.013,2.56-5.625,2.56    c-3.572,0-6.665-2.853-6.665-7.092v-0.054c0-3.945,2.772-7.091,6.451-7.091c3.813,0,6.238,3.093,6.238,7.118v0.053    c0,0.187,0,0.267-0.026,0.48H99.05C99.291,46.442,101.716,48.416,104.382,48.416z M108.94,41.884    c-0.186-2.745-1.759-5.277-4.878-5.277c-2.693,0-4.772,2.266-5.012,5.277H108.94z"/>
		<path fill="#010101" d="M3.003,73.195V54.534h1.386v18.661H3.003z"/>
		<path fill="#010101" d="M20.17,73.195v-8.077c0-2.8-1.573-4.639-4.318-4.639c-2.666,0-4.718,2.025-4.718,4.852v7.864H9.827V59.6    h1.307v2.532c0.906-1.6,2.426-2.853,4.905-2.853c3.439,0,5.438,2.347,5.438,5.599v8.317H20.17L20.17,73.195z"/>
		<path fill="#010101" d="M30.7,73.435c-2.105,0-3.813-1.146-3.813-3.731v-8.904h-1.972V59.6h1.972v-4.345h1.306V59.6h4.772v1.199    h-4.772v8.771c0,1.946,1.146,2.64,2.72,2.64c0.667,0,1.226-0.134,1.999-0.48v1.227C32.219,73.275,31.553,73.435,30.7,73.435z"/>
		<path fill="#010101" d="M42.216,72.289c2.106,0,3.546-0.934,4.665-2.133l0.906,0.8c-1.386,1.493-3.012,2.559-5.625,2.559    c-3.572,0-6.664-2.852-6.664-7.091V66.37c0-3.945,2.772-7.091,6.451-7.091c3.812,0,6.237,3.093,6.237,7.118v0.053    c0,0.187,0,0.267-0.026,0.48H36.884C37.125,70.315,39.55,72.289,42.216,72.289z M46.775,65.757    c-0.187-2.745-1.759-5.278-4.878-5.278c-2.693,0-4.772,2.267-5.012,5.278H46.775z"/>
		<path fill="#010101" d="M59.197,60.825c-3.145,0-5.891,2.373-5.891,6.798v5.572H52V59.599h1.306v3.865    c1.066-2.426,3.333-4.186,6.025-4.078v1.439H59.197L59.197,60.825z"/>
		<path fill="#010101" d="M73.006,73.195v-8.077c0-2.8-1.573-4.639-4.318-4.639c-2.666,0-4.719,2.025-4.719,4.852v7.864h-1.306V59.6    h1.306v2.532c0.907-1.6,2.426-2.853,4.905-2.853c3.439,0,5.438,2.347,5.438,5.599v8.317H73.006L73.006,73.195z"/>
		<path fill="#010101" d="M88.334,73.195v-2.267c-0.933,1.307-2.613,2.587-5.198,2.587c-2.532,0-5.252-1.439-5.252-4.266v-0.053    c0-2.826,2.426-4.426,5.945-4.426c1.893,0,3.199,0.24,4.505,0.587v-0.587c0-2.746-1.68-4.158-4.479-4.158    c-1.653,0-3.013,0.453-4.266,1.093l-0.479-1.146c1.493-0.693,2.959-1.173,4.825-1.173c3.492,0,5.678,1.813,5.678,5.332v8.478    L88.334,73.195L88.334,73.195z M88.361,66.558c-1.147-0.293-2.666-0.614-4.612-0.614c-2.879,0-4.479,1.28-4.479,3.173v0.054    c0,1.973,1.866,3.119,3.945,3.119c2.772,0,5.146-1.706,5.146-4.186V66.558z"/>
		<path fill="#010101" d="M98.704,73.435c-2.106,0-3.812-1.146-3.812-3.731v-8.904h-1.973V59.6h1.973v-4.345h1.306V59.6h4.772v1.199    h-4.772v8.771c0,1.946,1.146,2.64,2.719,2.64c0.667,0,1.226-0.134,2-0.48v1.227C100.223,73.275,99.557,73.435,98.704,73.435z"/>
		<path fill="#010101" d="M104.862,56.054v-1.786h1.626v1.786H104.862z M105.022,73.195V59.6h1.306v13.596H105.022z"/>
		<path fill="#010101" d="M117.498,73.515c-4.025,0-6.958-3.252-6.958-7.064v-0.053c0-3.813,2.96-7.118,7.012-7.118    c4.025,0,6.958,3.253,6.958,7.065v0.053C124.509,70.21,121.55,73.515,117.498,73.515z M123.096,66.397    c0-3.279-2.451-5.892-5.597-5.892c-3.226,0-5.545,2.639-5.545,5.838v0.054c0,3.278,2.452,5.892,5.598,5.892    c3.225,0,5.544-2.64,5.544-5.839V66.397z"/>
		<path fill="#010101" d="M138.879,73.195v-8.077c0-2.8-1.574-4.639-4.32-4.639c-2.665,0-4.717,2.025-4.717,4.852v7.864h-1.307V59.6    h1.307v2.532c0.905-1.6,2.426-2.853,4.904-2.853c3.439,0,5.438,2.347,5.438,5.599v8.317H138.879L138.879,73.195z"/>
		<path fill="#010101" d="M154.205,73.195v-2.267c-0.932,1.307-2.611,2.587-5.197,2.587c-2.533,0-5.252-1.439-5.252-4.266v-0.053    c0-2.826,2.426-4.426,5.945-4.426c1.893,0,3.197,0.24,4.504,0.587v-0.587c0-2.746-1.68-4.158-4.479-4.158    c-1.652,0-3.012,0.453-4.266,1.093l-0.479-1.146c1.492-0.693,2.959-1.173,4.824-1.173c3.492,0,5.678,1.813,5.678,5.332v8.478    L154.205,73.195L154.205,73.195z M154.232,66.558c-1.146-0.293-2.666-0.614-4.611-0.614c-2.88,0-4.479,1.28-4.479,3.173v0.054    c0,1.973,1.866,3.119,3.945,3.119c2.772,0,5.146-1.706,5.146-4.186V66.558L154.232,66.558z"/>
		<path fill="#010101" d="M160.363,73.195V53.734h1.307v19.461H160.363z"/>
		<path fill="#010101" d="M172.6,72.289c2.105,0,3.545-0.934,4.666-2.133l0.906,0.8c-1.387,1.493-3.014,2.559-5.625,2.559    c-3.573,0-6.666-2.852-6.666-7.091V66.37c0-3.945,2.773-7.091,6.451-7.091c3.813,0,6.238,3.093,6.238,7.118v0.053    c0,0.187,0,0.267-0.025,0.48h-11.277C167.508,70.315,169.934,72.289,172.6,72.289z M177.158,65.757    c-0.188-2.745-1.76-5.278-4.879-5.278c-2.692,0-4.771,2.267-5.012,5.278H177.158z"/>
		<path fill="#010101" d="M9.401,97.068H2.443V78.407h6.958c5.864,0,9.917,4.025,9.917,9.304S15.266,97.068,9.401,97.068z     M9.401,81.393H5.722v12.689h3.679c3.918,0,6.478-2.639,6.478-6.317C15.879,84.085,13.32,81.393,9.401,81.393z"/>
		<path fill="#010101" d="M29.421,94.749c1.573,0,2.693-0.587,3.812-1.68l1.893,1.68c-1.333,1.6-3.172,2.639-5.758,2.639    c-4.079,0-7.225-2.959-7.225-7.331c0-4.053,2.852-7.357,6.878-7.357c4.479,0,6.745,3.519,6.745,7.598    c0,0.293-0.027,0.56-0.053,0.88H25.369C25.742,93.47,27.341,94.749,29.421,94.749z M32.567,89.044    c-0.213-2.08-1.439-3.706-3.572-3.706c-1.973,0-3.359,1.52-3.652,3.706H32.567z"/>
		<path fill="#010101" d="M43.842,97.335c-1.999,0-4.212-0.721-5.971-2.106l1.44-2.186c1.519,1.146,3.172,1.732,4.611,1.732    c1.387,0,2.186-0.587,2.186-1.52v-0.053c0-1.094-1.493-1.467-3.146-1.974c-2.08-0.587-4.399-1.439-4.399-4.132v-0.054    c0-2.666,2.213-4.292,5.012-4.292c1.76,0,3.679,0.613,5.172,1.601l-1.279,2.292c-1.36-0.826-2.799-1.333-3.973-1.333    c-1.252,0-1.973,0.586-1.973,1.413v0.054c0,1.013,1.52,1.439,3.173,1.973c2.052,0.64,4.372,1.572,4.372,4.105v0.053    C49.067,95.868,46.775,97.335,43.842,97.335z"/>
		<path fill="#010101" d="M52.4,80.833v-3.065h3.465v3.065H52.4z M52.533,97.068V82.992h3.226v14.076H52.533z"/>
		<path fill="#010101" d="M66.235,101.387c-2.319,0-4.479-0.587-6.292-1.68l1.2-2.426c1.493,0.933,3.092,1.492,5.012,1.492    c2.879,0,4.452-1.492,4.452-4.318v-1.093c-1.173,1.52-2.64,2.586-4.959,2.586c-3.305,0-6.397-2.426-6.397-6.611    s3.119-6.638,6.397-6.638c2.373,0,3.839,1.093,4.933,2.398v-2.105h3.226v11.196C73.807,99.174,71.087,101.387,66.235,101.387z     M66.502,85.418c-2.239,0-3.999,1.546-3.999,3.892s1.786,3.919,3.999,3.919c2.239,0,4.132-1.572,4.132-3.892    C70.634,86.964,68.742,85.418,66.502,85.418z"/>
		<path fill="#010101" d="M81.057,97.068h-3.226V82.992h3.226v2.187c0.906-1.334,2.212-2.479,4.398-2.479    c3.173,0,5.012,2.133,5.012,5.412v8.957h-3.226V89.07c0-2.186-1.093-3.438-3.013-3.438c-1.865,0-3.172,1.306-3.172,3.492V97.068    L81.057,97.068z"/>
		<path fill="#010101" d="M9.641,110.118c3.945,0.959,5.998,2.372,5.998,5.491c0,3.519-2.746,5.599-6.665,5.599    c-2.852,0-5.544-0.987-7.784-2.986l1.973-2.346c1.786,1.547,3.572,2.427,5.892,2.427c2.026,0,3.305-0.935,3.305-2.374    c0-1.359-0.746-2.079-4.212-2.878c-3.972-0.96-6.211-2.133-6.211-5.599c0-3.253,2.666-5.438,6.371-5.438    c2.719,0,4.878,0.826,6.771,2.346l-1.759,2.479c-1.679-1.253-3.359-1.92-5.065-1.92c-1.919,0-3.039,0.987-3.039,2.239    C5.215,108.624,6.069,109.264,9.641,110.118z"/>
		<path fill="#010101" d="M27.742,120.941v-1.733c-0.96,1.146-2.426,2.026-4.559,2.026c-2.666,0-5.012-1.52-5.012-4.346v-0.053    c0-3.039,2.426-4.532,5.705-4.532c1.707,0,2.799,0.24,3.892,0.586v-0.346c0-1.946-1.226-3.013-3.465-3.013    c-1.573,0-2.746,0.347-4.025,0.88l-0.879-2.586c1.546-0.693,3.065-1.173,5.358-1.173c4.159,0,6.185,2.186,6.185,5.944v8.345    H27.742L27.742,120.941z M27.822,114.97c-0.827-0.32-1.973-0.56-3.226-0.56c-2.026,0-3.225,0.826-3.225,2.265v0.055    c0,1.332,1.199,2.079,2.719,2.079c2.132,0,3.732-1.2,3.732-2.959V114.97z"/>
		<path fill="#010101" d="M34.833,104.706v-3.065h3.466v3.065H34.833z M34.966,120.941v-14.076h3.226v14.076H34.966z"/>
		<path fill="#010101" d="M45.628,120.941h-3.226v-14.076h3.226v2.186c0.907-1.333,2.213-2.479,4.398-2.479    c3.173,0,5.012,2.132,5.012,5.412v8.957h-3.226v-7.998c0-2.186-1.093-3.438-3.012-3.438c-1.866,0-3.172,1.306-3.172,3.491V120.941    z"/>
		<path fill="#010101" d="M62.823,116.542c0,1.253,0.64,1.76,1.733,1.76c0.72,0,1.359-0.16,1.999-0.479v2.639    c-0.8,0.453-1.706,0.72-2.906,0.72c-2.373,0-4.052-1.039-4.052-4.132v-7.411h-1.786v-2.772h1.786V103h3.226v3.865h3.786v2.772    h-3.786V116.542L62.823,116.542z"/>
		<path fill="#010101" d="M69.327,114.356v-3.173h7.891v3.173H69.327z"/>
		<polygon fill="#010101" points="84.389,118.008 84.389,112.996 93.746,112.996 93.746,110.063 84.389,110.063 84.389,105.212     94.946,105.212 94.946,102.279 89.779,102.279 92.03,100.01 87.94,100.01 86.374,102.279 81.11,102.279 81.11,120.94     95.079,120.94 95.079,118.008   "/>
		<path fill="#010101" d="M102.49,116.542c0,1.253,0.639,1.76,1.732,1.76c0.72,0,1.359-0.16,2-0.479v2.639    c-0.801,0.453-1.707,0.72-2.907,0.72c-2.373,0-4.052-1.039-4.052-4.132v-7.411h-1.786v-2.772h1.786V103h3.226v3.865h3.785v2.772    h-3.785V116.542L102.49,116.542z"/>
		<path fill="#010101" d="M109.581,104.706v-3.065h3.466v3.065H109.581z M109.714,120.941v-14.076h3.225v14.076H109.714z"/>
		<path fill="#010101" d="M123.656,118.622c1.572,0,2.692-0.587,3.811-1.68l1.895,1.68c-1.334,1.6-3.174,2.639-5.76,2.639    c-4.078,0-7.224-2.959-7.224-7.331c0-4.053,2.853-7.357,6.878-7.357c4.479,0,6.744,3.519,6.744,7.598    c0,0.293-0.025,0.56-0.053,0.879h-10.344C119.977,117.342,121.576,118.622,123.656,118.622z M126.801,112.917    c-0.213-2.08-1.439-3.706-3.572-3.706c-1.973,0-3.359,1.52-3.652,3.706H126.801z"/>
		<path fill="#010101" d="M136.479,120.941h-3.227v-14.076h3.227v2.186c0.906-1.333,2.212-2.479,4.398-2.479    c3.172,0,5.012,2.132,5.012,5.412v8.957h-3.227v-7.998c0-2.186-1.092-3.438-3.012-3.438c-1.865,0-3.172,1.306-3.172,3.491V120.941    L136.479,120.941z"/>
		<path fill="#010101" d="M153.006,120.941h-3.227v-14.076h3.227v2.186c0.906-1.333,2.213-2.479,4.398-2.479    c3.172,0,5.012,2.132,5.012,5.412v8.957h-3.227v-7.998c0-2.186-1.092-3.438-3.012-3.438c-1.865,0-3.172,1.306-3.172,3.491V120.941    L153.006,120.941z"/>
		<path fill="#010101" d="M172.813,118.622c1.573,0,2.693-0.587,3.813-1.68l1.893,1.68c-1.332,1.6-3.172,2.639-5.758,2.639    c-4.078,0-7.225-2.959-7.225-7.331c0-4.053,2.852-7.357,6.877-7.357c4.479,0,6.744,3.519,6.744,7.598    c0,0.293-0.025,0.56-0.053,0.879H168.76C169.135,117.342,170.732,118.622,172.813,118.622z M175.959,112.917    c-0.214-2.08-1.439-3.706-3.572-3.706c-1.975,0-3.36,1.52-3.653,3.706H175.959z"/>
	</g>
	<g>
		<path fill="#010101" stroke="#010101" stroke-width="0.25" stroke-miterlimit="10" d="M6.497,145.488    c-1.702,0-2.895-0.614-3.931-1.475l1.176-1.649c0.93,0.79,1.755,1.158,2.808,1.158c1.808,0,2.896-1.597,2.966-3.86    c-0.614,0.737-1.562,1.299-2.878,1.299c-2.615,0-4.352-1.527-4.352-3.913c0-2.422,1.86-4.265,4.58-4.265    c1.544,0,2.544,0.438,3.404,1.299c0.913,0.912,1.492,2.264,1.492,4.703C11.762,142.751,9.796,145.488,6.497,145.488z     M6.883,134.644c-1.527,0-2.439,1.018-2.439,2.299c0,1.299,0.982,2.211,2.509,2.211c1.562,0,2.492-1.018,2.492-2.229    C9.445,135.626,8.445,134.644,6.883,134.644z"/>
		<path fill="#010101" d="M30.911,145.277v-5.247c0-1.263-0.562-1.912-1.562-1.912c-1,0-1.615,0.649-1.615,1.912v5.247h-2.667    v-5.247c0-1.263-0.562-1.912-1.562-1.912c-1,0-1.615,0.649-1.615,1.912v5.247h-2.667v-9.405h2.667v1.333    c0.614-0.789,1.421-1.509,2.772-1.509c1.229,0,2.159,0.544,2.65,1.491c0.825-0.965,1.808-1.491,3.088-1.491    c1.983,0,3.176,1.193,3.176,3.457v6.124H30.911z"/>
		<path fill="#010101" d="M41.409,145.277v-1.018c-0.649,0.72-1.544,1.193-2.843,1.193c-1.772,0-3.229-1.019-3.229-2.878v-0.035    c0-2.053,1.562-3.001,3.79-3.001c0.948,0,1.632,0.158,2.299,0.387v-0.158c0-1.105-0.684-1.72-2.018-1.72    c-1.018,0-1.737,0.193-2.597,0.509l-0.667-2.035c1.035-0.457,2.053-0.755,3.65-0.755c2.913,0,4.194,1.509,4.194,4.054v5.457    H41.409z M41.461,141.487c-0.456-0.211-1.053-0.352-1.702-0.352c-1.141,0-1.842,0.457-1.842,1.299v0.035    c0,0.72,0.596,1.141,1.456,1.141c1.246,0,2.088-0.685,2.088-1.649V141.487z"/>
		<path fill="#010101" d="M51.817,138.486c-1.772,0-2.86,1.07-2.86,3.316v3.475H46.29v-9.405h2.667v1.895    c0.544-1.298,1.421-2.141,3.001-2.07v2.79H51.817z"/>
		<path fill="#010101" d="M56.926,145.453c-1.316,0-2.79-0.439-4.036-1.422l1.141-1.755c1.018,0.737,2.088,1.123,2.966,1.123    c0.772,0,1.123-0.28,1.123-0.701v-0.035c0-0.579-0.913-0.772-1.948-1.088c-1.316-0.387-2.808-1.001-2.808-2.825v-0.035    c0-1.913,1.544-2.983,3.439-2.983c1.193,0,2.492,0.403,3.51,1.088l-1.018,1.843c-0.93-0.544-1.86-0.878-2.544-0.878    c-0.649,0-0.983,0.281-0.983,0.649v0.035c0,0.526,0.895,0.772,1.913,1.123c1.316,0.438,2.843,1.07,2.843,2.79v0.035    C60.523,144.505,58.962,145.453,56.926,145.453z"/>
		<path fill="#010101" d="M64.001,140.354v-1.284h12.577v1.284H64.001z"/>
		<path fill="#010101" stroke="#010101" stroke-width="0.25" stroke-miterlimit="10" d="M84.508,145.488    c-1.702,0-2.895-0.614-3.931-1.475l1.176-1.649c0.93,0.79,1.755,1.158,2.808,1.158c1.808,0,2.896-1.597,2.966-3.86    c-0.614,0.737-1.562,1.299-2.878,1.299c-2.615,0-4.352-1.527-4.352-3.913c0-2.422,1.86-4.265,4.58-4.265    c1.544,0,2.544,0.438,3.404,1.299c0.913,0.912,1.492,2.264,1.492,4.703C89.773,142.751,87.808,145.488,84.508,145.488z     M84.895,134.644c-1.527,0-2.439,1.018-2.439,2.299c0,1.299,0.982,2.211,2.509,2.211c1.562,0,2.492-1.018,2.492-2.229    C87.457,135.626,86.456,134.644,84.895,134.644z"/>
		<path fill="#010101" d="M102.745,145.277v-1.018c-0.649,0.72-1.544,1.193-2.843,1.193c-1.772,0-3.229-1.019-3.229-2.878v-0.035    c0-2.053,1.562-3.001,3.79-3.001c0.948,0,1.632,0.158,2.299,0.387v-0.158c0-1.105-0.684-1.72-2.018-1.72    c-1.018,0-1.737,0.193-2.597,0.509l-0.667-2.035c1.035-0.457,2.053-0.755,3.65-0.755c2.913,0,4.194,1.509,4.194,4.054v5.457    H102.745z M102.797,141.487c-0.456-0.211-1.053-0.352-1.702-0.352c-1.141,0-1.842,0.457-1.842,1.299v0.035    c0,0.72,0.596,1.141,1.456,1.141c1.246,0,2.088-0.685,2.088-1.649V141.487z"/>
		<path fill="#010101" d="M112.557,145.348h-2.421l-3.703-9.476h2.825l2.105,6.3l2.124-6.3h2.772L112.557,145.348z"/>
		<path fill="#010101" d="M123.334,138.486c-1.772,0-2.86,1.07-2.86,3.316v3.475h-2.667v-9.405h2.667v1.895    c0.544-1.298,1.421-2.141,3.001-2.07v2.79H123.334z"/>
		<path fill="#010101" d="M125.197,134.837v-2.369h2.807v2.369H125.197z M125.267,145.277v-9.405h2.667v9.405H125.267z"/>
		<path fill="#010101" d="M130.567,145.277v-12.81h2.667v12.81H130.567z"/>
		<path fill="#010101" stroke="#010101" stroke-width="0.25" stroke-miterlimit="10" d="M142.379,136.591l-1.526-1.192    c1.176-1.649,2.334-2.58,4.527-2.58c2.456,0,4.054,1.492,4.054,3.686c0,1.947-1.018,3-3.193,4.772l-2.527,2.105h5.844v1.896    h-8.879v-1.702l4.229-3.598c1.685-1.421,2.299-2.211,2.299-3.316c0-1.211-0.859-1.912-1.982-1.912    S143.327,135.363,142.379,136.591z"/>
		<path fill="#010101" stroke="#010101" stroke-width="0.25" stroke-miterlimit="10" d="M156.209,145.488    c-3.229,0-5.334-2.808-5.334-6.335s2.141-6.37,5.369-6.37c3.229,0,5.335,2.808,5.335,6.335S159.438,145.488,156.209,145.488z     M156.209,134.731c-1.912,0-3.105,1.93-3.105,4.387s1.229,4.422,3.141,4.422c1.913,0,3.106-1.947,3.106-4.387    S158.123,134.731,156.209,134.731z"/>
		<path fill="#010101" stroke="#010101" stroke-width="0.25" stroke-miterlimit="10" d="M165.549,132.906h1.509v12.371h-2.141V135.1    l-2.211,0.614l-0.456-1.755L165.549,132.906z"/>
		<path fill="#010101" stroke="#010101" stroke-width="0.25" stroke-miterlimit="10" d="M169.587,132.994h8.634v1.632l-5.545,10.651    h-2.422l5.51-10.388h-6.177V132.994z"/>
	</g>
</g>
</svg>