<svg version="1.1" id="Calque_1" xmlns="http://www.w3.org/2000/svg" xmlns:xlink="http://www.w3.org/1999/xlink" x="0px" y="0px" width="100" height="45" viewBox="0 0 100 45" enable-background="new 0 0 100 45" xml:space="preserve">
<g>
	<g>
		<path fill="#FFFFFF" d="M82.509,17.348c-0.578,0-1.032,0.184-1.359,0.551c-0.328,0.366-0.517,0.887-0.563,1.561h3.828    c-0.013-0.674-0.188-1.194-0.528-1.561C83.546,17.531,83.087,17.348,82.509,17.348z"/>
		<path fill="#FFFFFF" d="M18.565,14.495c-0.197,0.763-0.761,2.65-1.69,5.661h3.407c-0.876-2.82-1.37-4.415-1.48-4.785    C18.691,15.002,18.613,14.709,18.565,14.495z"/>
		<path fill="#FFFFFF" d="M39.379,21.427c-0.388,0.263-0.581,0.662-0.581,1.198c0,0.77,0.441,1.154,1.323,1.154    c0.632,0,1.138-0.182,1.517-0.546c0.378-0.363,0.567-0.847,0.567-1.449v-0.822l-1.055,0.035    C40.356,21.021,39.767,21.164,39.379,21.427z"/>
		<path fill="#FFFFFF" d="M92.001,2.635H8c-3.313,0-6,2.165-6,4.835V30.03c0,2.67,2.688,4.835,6,4.835H42.5l7.501,7.5l7.5-7.5h34.5    c3.314,0,6-2.165,6-4.835V7.47C98.001,4.8,95.315,2.635,92.001,2.635z M15.265,8.538h3.059c0.376,0.602,1.077,1.499,2.103,2.692    v0.241h-1.807c-0.376-0.263-0.928-0.688-1.655-1.274c-0.728-0.588-1.294-1.078-1.699-1.472V8.538z M21.893,25.595l-0.948-3.112    h-4.768l-0.948,3.112h-2.987l4.615-13.131h3.391l4.633,13.131H21.893z M33.798,25.595h-2.729V11.677h2.729V25.595z M44.916,25.595    h-1.905l-0.528-1.359h-0.071c-0.459,0.578-0.932,0.979-1.418,1.203c-0.485,0.224-1.119,0.335-1.9,0.335    c-0.96,0-1.716-0.274-2.268-0.822c-0.552-0.549-0.827-1.33-0.827-2.344c0-1.062,0.371-1.844,1.113-2.348s1.862-0.783,3.358-0.837    l1.735-0.054v-0.438c0-1.013-0.519-1.521-1.556-1.521c-0.8,0-1.738,0.242-2.817,0.725l-0.904-1.842    c1.151-0.603,2.428-0.904,3.829-0.904c1.341,0,2.37,0.293,3.085,0.877c0.716,0.585,1.074,1.473,1.074,2.665V25.595z     M63.341,20.979c0,0.966-0.217,1.813-0.648,2.54c-0.433,0.728-1.058,1.285-1.874,1.673c-0.817,0.388-1.783,0.581-2.898,0.581    c-1.681,0-2.987-0.431-3.917-1.292c-0.931-0.862-1.396-2.041-1.396-3.538v-8.426h2.764v8.006c0,1.008,0.203,1.747,0.608,2.218    c0.405,0.472,1.076,0.707,2.013,0.707c0.906,0,1.563-0.237,1.972-0.711c0.408-0.475,0.613-1.218,0.613-2.232v-7.987h2.764V20.979z     M75.559,25.595h-2.728v-5.841c0-0.722-0.129-1.263-0.385-1.623c-0.257-0.361-0.665-0.541-1.226-0.541    c-0.763,0-1.314,0.255-1.654,0.765s-0.51,1.354-0.51,2.535v4.705h-2.729v-10h2.084l0.367,1.279h0.151    c0.305-0.483,0.724-0.849,1.257-1.096c0.534-0.247,1.141-0.371,1.82-0.371c1.163,0,2.046,0.314,2.647,0.943    c0.603,0.629,0.903,1.537,0.903,2.724V25.595z M86.972,21.274h-6.448c0.029,0.775,0.259,1.381,0.688,1.815    c0.429,0.436,1.031,0.653,1.807,0.653c0.603,0,1.172-0.063,1.708-0.188c0.537-0.125,1.098-0.325,1.682-0.6v2.111    c-0.477,0.238-0.986,0.416-1.529,0.532s-1.204,0.174-1.985,0.174c-1.61,0-2.868-0.444-3.774-1.333    c-0.907-0.888-1.36-2.146-1.36-3.774c0-1.675,0.419-2.971,1.257-3.886c0.838-0.916,1.996-1.373,3.476-1.373    c1.413,0,2.513,0.402,3.3,1.207c0.787,0.806,1.181,1.917,1.181,3.337V21.274z"/>
	</g>
	<rect fill="none" width="100" height="45"/>
</g>
</svg>